<svg xmlns="http://www.w3.org/2000/svg" width="1212" height="329" viewBox="0 0 1212 329"
    version="1.1">
    <path
        d="M 566.500 67.399 C 541.361 73.579, 533.866 104.056, 553.195 121.505 L 558.500 126.294 554.843 125.619 C 541.709 123.195, 518.118 133.313, 445.500 172.515 C 310.407 245.443, 226.686 274.918, 146.750 277.693 L 129 278.310 129 282.805 L 129 287.300 146.750 286.712 C 199.823 284.952, 260.746 269.468, 328.117 240.618 C 364.153 225.187, 391.846 211.515, 446.500 182.172 C 567.193 117.374, 561.015 116.404, 632.797 211.421 C 702.917 304.240, 703.253 304.314, 799.500 247.984 C 876.566 202.880, 876.291 202.902, 931 237.493 C 986.814 272.782, 1018.014 285.046, 1056.250 286.727 L 1069 287.287 1069 282.793 L 1069 278.300 1055.750 277.712 C 1017.979 276.037, 990.516 264.624, 926 223.795 C 879.152 194.147, 872.006 195.054, 794.500 240.482 C 704.752 293.086, 706.021 293.342, 642.974 209.883 C 606.765 161.951, 591.253 144.533, 575.654 134.292 L 567.985 129.258 575.781 128.807 C 611.947 126.713, 616.444 76.644, 581.289 67.487 C 574.641 65.756, 573.221 65.747, 566.500 67.399"
        stroke="none" fill="currentColor" fill-rule="evenodd" />
</svg>